# xmcd CD database file
#
# Track frame offsets:
#	150
#	17015
#	36607
#	52042
#	63334
#	75886
#	90812
#	107158
#	126497
#	144590
#	153758
#	166629
#	182862
#
# Disc length: 2462 seconds
#
# Revision: 0
# Processed by: cddbd v1.5.1PL2 Copyright (c) Steve Scherf et al.
# Submitted via: CDex 1.51
#
DISCID=9f099c0d
DTITLE=Micky and The Motorcars - Careless
DYEAR=2006
DGENRE=Country
TTITLE0=Careless
TTITLE1=Carolina Morning
TTITLE2=Desperation
TTITLE3=Guts
TTITLE4=Lost and Found
TTITLE5=Long and Lonely Highway
TTITLE6=Louisiana Baby
TTITLE7=Love Is Where I Left It
TTITLE8=Rock springs to Cheyenne
TTITLE9=Pretty
TTITLE10=Remember
TTITLE11=You've Got Me
TTITLE12=Hidden Track
EXTD=YEAR: 2006
EXTT0=
EXTT1=
EXTT2=
EXTT3=
EXTT4=
EXTT5=
EXTT6=
EXTT7=
EXTT8=
EXTT9=
EXTT10=
EXTT11=
EXTT12=
PLAYORDER=
